<svg id="Layer_1" data-name="Layer 1" xmlns="http://www.w3.org/2000/svg" viewBox="0 0 1200 1200"><defs><style>.cls-1{fill:#f82f3f;}</style></defs><path class="cls-1" d="M431.6,795.59A34.42,34.42,0,0,0,466,830H868.39a34.54,34.54,0,0,0,34.43-34.41v0C902.82,627.66,766.2,491,598.29,491c-94.85,0-179.71,43.61-235.61,111.82V134.34a34.42,34.42,0,0,0-34.43-34.43h-.05a34.42,34.42,0,0,0-34.43,34.43V792.67c0,165,134.91,304.91,299.86,307.39,113.23,1.7,212.76-58.73,266.62-149.34,13.58-22.84-3.17-51.78-29.74-51.78h-.06a34.53,34.53,0,0,0-29.64,16.94C758,987.62,678.21,1034.84,588,1031c-122.9-5.28-221.71-105.64-225.17-228.61C359,669.35,466.13,560,598.29,560c118.21,0,216.36,87.51,233.09,201.15H466a34.42,34.42,0,0,0-34.43,34.43Z"/><path class="cls-1" d="M135.38,728.1s13.37-1,9.41,17.83,5.45,35.17,5.45,35.17,10.4,26.26,19.82,41.12,68.36,63.91,0,153.08c0,0-7.93-51.52-81.25-113.45S55.12,705.8,55.12,705.8,74,655.27,135.38,626c0,0,49.53-21.53,11.39,13.87,0,0-142.18,114-11.89,201.63C134.88,841.54,96,735.9,135.38,728.1Z"/><path class="cls-1" d="M102.52,781.89S61.4,730.94,161.14,641.44c0,0,.48-.58,1.24-1.56A155.34,155.34,0,0,0,171.87,625c3-5.28,6.44-6.21,10.24-5,2.62.86,5.95,3.3,3.63,11.89-1.85,6.9-8,14.8-14.69,22.78-11.37,13.48-24.52,26.09-24.52,26.09S102.19,729.37,102.52,781.89Z"/><path class="cls-1" d="M1061.21,728.1s-13.38-1-9.42,17.83-5.44,35.17-5.44,35.17-10.41,26.26-19.82,41.12-68.37,63.91,0,153.08c0,0,7.93-51.52,81.25-113.45s33.68-156.05,33.68-156.05-18.82-50.53-80.25-79.76c0,0-49.53-21.53-11.4,13.87,0,0,142.18,114,11.89,201.63C1061.7,841.54,1100.58,735.9,1061.21,728.1Z"/><path class="cls-1" d="M1094.07,781.89s41.12-50.95-58.62-140.45c0,0-.48-.58-1.24-1.56a157.26,157.26,0,0,1-9.5-14.87c-3-5.28-6.43-6.21-10.24-5-2.62.86-5.94,3.3-3.63,11.89,1.86,6.9,8,14.8,14.7,22.78,11.37,13.48,24.52,26.09,24.52,26.09S1094.4,729.37,1094.07,781.89Z"/></svg>