<svg id="02d45862-41ba-4c70-8782-54d8e5b108cc" data-name="Layer 1" xmlns="http://www.w3.org/2000/svg" xmlns:xlink="http://www.w3.org/1999/xlink" width="900.1" height="696.7" viewBox="0 0 900.1 696.67"><defs><linearGradient id="fa4a4f63-ffbe-4a50-a004-4e8ae15cd2d3" x1="583.82" y1="763.13" x2="583.82" y2="246.35" gradientUnits="userSpaceOnUse"><stop offset="0" stop-color="grey" stop-opacity="0.25"/><stop offset="0.5" stop-color="grey" stop-opacity="0.12"/><stop offset="1" stop-color="grey" stop-opacity="0.1"/></linearGradient><linearGradient id="e26e1273-ae5e-4f1a-b841-a4248e9532de" x1="584.38" y1="798.34" x2="584.38" y2="714.29" xlink:href="#fa4a4f63-ffbe-4a50-a004-4e8ae15cd2d3"/><linearGradient id="54428808-f3ba-4b0a-98a1-6e23268491ee" x1="760.68" y1="248.69" x2="760.68" y2="0" xlink:href="#fa4a4f63-ffbe-4a50-a004-4e8ae15cd2d3"/></defs><title>active support</title><g opacity="0.8"><path d="M 971.1 763.1 H 196.5 v -501 a 15.8 15.8 0 0 1 15.8 -15.8 h 743 a 15.8 15.8 0 0 1 15.8 15.8 Z" transform="translate(-149.9,-101.7)" fill="url(#fa4a4f63-ffbe-4a50-a004-4e8ae15cd2d3)"/></g><path d="M 73 153.8 H 794.7 a 15.8 15.8 0 0 1 15.8 15.8 V 661.5 a 0 0 0 0 1 0 0 H 57.2 a 0 0 0 0 1 0 0 V 169.6 A 15.8 15.8 0 0 1 73 153.8 Z" fill="#ffffff"/><rect x="81.5" y="183.3" width="704.8" height="462.3" fill="#f5f5f5"/><rect x="84.2" y="205.8" width="701.8" height="415.9" fill="#e0e0e0" opacity="0.8"/><rect x="84.2" y="183.7" width="701.8" height="22.1" fill="#f5f5f5"/><circle cx="99.2" cy="194.4" r="5.4" fill="#ff5252"/><circle cx="114" cy="194.4" r="5.4" fill="#ffff00"/><circle cx="128.7" cy="194.4" r="5.4" fill="#69f0ae"/><text x="-149.9" y="-101.7"></text><g opacity="0.8"><path d="M 992.8 796.4 c -43.1 3.3 -783.6 2 -809.5 0 C 149.4 780 150 716.6 150 716.6 l 339.6 -2.3 l 1.1 19.3 H 636.1 l 5.7 -17 h 376.3 S 1025.6 774.8 992.8 796.4 Z" transform="translate(-149.9,-101.7)" fill="url(#e26e1273-ae5e-4f1a-b841-a4248e9532de)"/></g><path d="M 1012.6 721.7 h -369 a 11.3 11.3 0 0 1 -8.6 18.7 H 494.1 a 11.3 11.3 0 0 1 -8.6 -18.7 H 155.1 S 154.5 776.8 188 791 c 25.6 1.7 757 2.8 799.6 0 C 1020 772.2 1012.6 721.7 1012.6 721.7 Z" transform="translate(-149.9,-101.7)" fill="#f5f5f5"/><circle cx="81.8" cy="631.9" r="4.5" fill="#e0e0e0"/><circle cx="95.4" cy="631.9" r="4.5" fill="#e0e0e0"/><circle cx="109" cy="631.9" r="4.5" fill="#e0e0e0"/><path d="M 419.9 375.9 h 32.2 a 139.5 139.5 0 0 1 139.5 139.5 V 616.8 a 0 0 0 0 1 0 0 H 280.4 a 0 0 0 0 1 0 0 V 515.4 A 139.5 139.5 0 0 1 419.9 375.9 Z" fill="#f6303f"/><circle cx="436.3" cy="179.4" r="142.2" fill="#333333"/><path d="M 415.3 334.4 h 41.1 a 29 29 0 0 1 29 29 v 28.3 a 44.3 44.3 0 0 1 -44.3 44.3 H 430.6 a 44.3 44.3 0 0 1 -44.3 -44.3 V 363.5 a 29 29 0 0 1 29 -29 Z" opacity="0.1"/><path d="M 386.3 331.5 h 99.2 a 0 0 0 0 1 0 0 v 57.3 a 44.3 44.3 0 0 1 -44.3 44.3 H 430.6 a 44.3 44.3 0 0 1 -44.3 -44.3 v -57.3 A 0 0 0 0 1 386.3 331.5 Z" fill="#fdb797"/><path d="M 536.4 447.5 a 142.8 142.8 0 0 0 99.2 0.3 V 435.6 H 536.4 Z" transform="translate(-149.9,-101.7)" opacity="0.1"/><circle cx="436.3" cy="210.3" r="142.2" fill="#fdb797"/><path d="M 450.3 261.6 H 721.5 S 698.3 152.1 595.8 159 S 450.3 261.6 450.3 261.6 Z" transform="translate(-149.9,-101.7)" opacity="0.1"/><path d="M 450.3 257.9 H 721.5 S 698.3 148.4 595.8 155.4 S 450.3 257.9 450.3 257.9 Z" transform="translate(-149.9,-101.7)" fill="#333333"/><ellipse cx="297" cy="204.2" rx="13.2" ry="24.8" fill="#fdb797"/><ellipse cx="574.8" cy="204.2" rx="13.2" ry="24.8" fill="#fdb797"/><path d="M 471.3 185.3 c 3.3 -10.6 9.2 -20.8 18.3 -27.1 c 6.9 -4.8 15.2 -7.1 23.2 -9.9 a 177.1 177.1 0 0 0 33.7 -16.1 c 12.1 -7.4 23.4 -16.4 36.7 -21.3 c 22.9 -8.4 48.3 -3.9 71.9 2.2 c 5.8 1.5 11.7 3.1 16.8 6.3 c 5.9 3.6 10.5 9.1 14.9 14.4 l 37.4 45.2 c 3.4 4.1 6.9 8.3 9.3 13.1 a 45.1 45.1 0 0 1 4.3 14.8 c 1 8.3 0.2 17.1 -4 24.3 c -6.3 10.8 -19.4 16.2 -31.9 16.7 s -24.8 -3.1 -36.8 -6.7 c -38.8 -11.3 -78 -21.9 -118.2 -26.6 a 333.4 333.4 0 0 0 -60.1 -1.9 c -6.3 0.4 -14.6 3.3 -18.4 -3.1 C 464.9 203.9 469.6 190.9 471.3 185.3 Z" transform="translate(-149.9,-101.7)" fill="#333333"/><line x1="341.3" y1="506.34" x2="341.3" y2="616.76" fill="none" stroke="#000" stroke-miterlimit="10" stroke-width="4" opacity="0.05"/><line x1="533.14" y1="506.34" x2="533.14" y2="616.76" fill="none" stroke="#000" stroke-miterlimit="10" stroke-width="4" opacity="0.05"/><g opacity="0.8"><polygon points="900.1,198.5 721.6,198.5 661.4,248.7 661.4,198.5 621.3,198.5 621.3,0 900.1,0 900.1,198.5" fill="url(#54428808-f3ba-4b0a-98a1-6e23268491ee)"/></g><rect x="625" y="2.4" width="271.3" height="189.8" fill="#ffffff"/><rect x="655.6" y="30.3" width="214.9" height="5.6" fill="#e0e0e0"/><rect x="655.6" y="55.7" width="147.8" height="5.6" fill="#e0e0e0"/><rect x="655.6" y="81" width="177.3" height="5.6" fill="#e0e0e0"/><rect x="655.6" y="106.5" width="142.4" height="5.6" fill="#f6303f"/><rect x="655.6" y="131.8" width="214.9" height="5.6" fill="#f6303f"/><rect x="655.6" y="157.2" width="214.9" height="5.6" fill="#e0e0e0"/><polygon points="671.5,188.5 671.5,238.7 726.7,183.4 671.5,188.5" fill="#ffffff"/></svg>